<?xml version="1.0" standalone="no"?>
<!DOCTYPE svg PUBLIC "-//W3C//DTD SVG 20010904//EN"
 "http://www.w3.org/TR/2001/REC-SVG-20010904/DTD/svg10.dtd">
<svg version="1.0" xmlns="http://www.w3.org/2000/svg"
 width="700.000000pt" height="700.000000pt" viewBox="0 0 700.000000 700.000000"
 preserveAspectRatio="xMidYMid meet">
<metadata>
Created by potrace 1.11, written by Peter Selinger 2001-2013
</metadata>
<g transform="translate(0.000000,700.000000) scale(0.100000,-0.100000)"
fill="#000000" stroke="none">
<path d="M1890 6496 c-96 -26 -215 -99 -272 -165 -27 -32 -156 -248 -298 -499
-8 -15 -27 -47 -41 -72 -15 -25 -36 -61 -46 -80 -11 -19 -91 -158 -178 -309
-86 -151 -165 -288 -175 -305 -34 -61 -81 -141 -90 -156 -5 -8 -38 -67 -75
-130 -36 -63 -77 -135 -91 -160 -160 -276 -331 -574 -352 -610 -13 -25 -40
-72 -60 -105 -19 -33 -42 -73 -52 -90 -9 -16 -40 -70 -69 -120 -67 -117 -83
-169 -86 -288 -5 -143 12 -188 156 -439 67 -117 130 -226 139 -243 10 -16 76
-131 147 -255 182 -316 595 -1036 890 -1550 278 -483 301 -515 433 -584 44
-23 99 -43 140 -50 48 -8 502 -11 1611 -10 1439 1 1548 2 1604 18 137 40 257
134 321 251 6 11 72 126 146 255 342 595 523 909 551 960 16 30 33 60 37 65 4
6 19 30 32 55 14 25 164 286 333 580 416 724 416 725 436 795 12 43 16 91 14
156 -3 109 -22 169 -95 294 -26 44 -198 343 -382 665 -185 322 -345 601 -357
620 -11 19 -24 42 -28 50 -3 8 -16 31 -28 50 -12 19 -34 58 -50 85 -15 28
-114 201 -220 385 -106 184 -203 354 -216 376 -13 23 -64 112 -113 198 -105
185 -142 230 -239 290 -145 89 32 81 -1752 83 -1235 1 -1590 -1 -1625 -11z
m3220 -229 c70 -32 107 -67 152 -142 32 -53 354 -614 405 -705 11 -19 90 -156
175 -305 86 -148 164 -286 175 -305 11 -19 81 -142 156 -272 76 -131 146 -254
158 -275 12 -21 56 -99 99 -173 43 -74 87 -151 98 -170 11 -19 66 -116 123
-214 119 -208 128 -230 129 -312 0 -75 -14 -116 -74 -217 -25 -43 -46 -80 -46
-83 0 -3 -8 -18 -19 -32 -10 -15 -32 -52 -49 -82 -23 -42 -376 -659 -472 -825
-9 -16 -81 -142 -160 -280 -78 -137 -170 -297 -203 -355 -33 -58 -68 -118 -77
-135 -401 -703 -442 -772 -489 -816 -91 -86 48 -80 -1711 -77 l-1555 3 -46 23
c-75 37 -107 78 -239 308 -69 120 -127 223 -129 229 -2 5 -14 26 -26 45 -12
19 -33 55 -47 80 -14 25 -59 104 -100 175 -41 72 -86 150 -100 175 -14 25 -58
101 -98 170 -40 69 -86 150 -103 180 -16 30 -38 67 -49 82 -10 14 -18 28 -18
31 0 3 -75 135 -166 294 -91 158 -180 313 -196 343 -17 30 -34 60 -38 65 -5 6
-19 30 -32 55 -14 25 -89 156 -167 292 -92 161 -144 263 -150 293 -11 57 -4
119 18 170 13 30 515 915 571 1005 9 15 426 741 465 809 11 20 38 68 60 106
22 39 47 82 55 96 8 15 55 96 103 180 49 85 93 161 98 169 25 41 139 242 139
246 0 10 54 79 79 102 39 35 80 55 137 66 35 8 543 11 1580 10 l1529 -1 55
-26z"/>
<path d="M3332 4888 c-7 -7 -12 -16 -12 -22 0 -5 -43 -122 -96 -260 -53 -138
-164 -426 -245 -641 -82 -214 -154 -399 -159 -410 -5 -11 -16 -38 -23 -60 -18
-51 -414 -1083 -427 -1110 -5 -11 -31 -80 -58 -152 l-50 -133 193 0 194 0 9
32 c15 54 244 682 252 693 5 6 214 10 592 10 l583 -1 13 -28 c8 -15 43 -109
79 -209 36 -100 83 -231 105 -292 22 -60 47 -131 56 -157 l16 -48 193 0 193 0
-21 52 c-12 29 -32 80 -44 113 -32 84 -152 398 -180 470 -35 88 -174 451 -200
520 -12 33 -123 323 -247 645 -124 322 -261 678 -304 792 l-79 207 -160 1
c-112 0 -165 -4 -173 -12z m228 -608 c12 -36 27 -76 33 -90 5 -14 11 -29 13
-35 1 -5 48 -134 103 -285 56 -151 121 -329 145 -395 24 -66 60 -164 80 -218
20 -53 36 -103 36 -110 0 -9 -105 -12 -470 -12 -327 0 -470 3 -470 11 0 16
401 1122 462 1274 9 24 10 22 27 -25 10 -28 28 -79 41 -115z"/>
</g>
</svg>
